<svg xmlns="http://www.w3.org/2000/svg" xmlns:xlink="http://www.w3.org/1999/xlink" width="500" zoomAndPan="magnify" viewBox="0 0 375 374.999991" height="500" preserveAspectRatio="xMidYMid meet" version="1.0"><defs><clipPath id="id1"><path d="M 112.65625 41.105469 L 262.65625 41.105469 L 262.65625 196 L 112.65625 196 Z M 112.65625 41.105469 " clip-rule="nonzero"/></clipPath><clipPath id="id2"><path d="M 112.65625 180 L 262.65625 180 L 262.65625 333.605469 L 112.65625 333.605469 Z M 112.65625 180 " clip-rule="nonzero"/></clipPath></defs><path fill="#ffffff" d="M 258.742188 184.828125 L 258.742188 99.507812 L 258.738281 99.507812 C 258.65625 69.351562 236.152344 44.929688 208.402344 44.929688 L 166.800781 44.929688 C 139.050781 44.929688 116.542969 69.351562 116.464844 99.507812 L 116.460938 99.507812 L 116.460938 184.625 C 137.5 188.90625 193.84375 197.578125 258.742188 184.828125 " fill-opacity="1" fill-rule="nonzero"/><g clip-path="url(#id1)"><path stroke-linecap="round" transform="matrix(0.108707, 0, 0, -0.108373, -43.509888, 417.811077)" fill="none" stroke-linejoin="round" d="M 2780.429388 2149.81525 L 2780.429388 2937.09564 L 2780.393454 2937.09564 C 2779.638845 3215.357915 2572.624477 3440.707104 2317.351075 3440.707104 L 1934.656575 3440.707104 C 1679.383173 3440.707104 1472.332872 3215.357915 1471.614197 2937.09564 L 1471.578263 2937.09564 L 1471.578263 2151.689555 C 1665.117472 2112.184963 2183.425967 2032.166537 2780.429388 2149.81525 Z M 2780.429388 2149.81525 " stroke="#0d242f" stroke-width="70" stroke-opacity="1" stroke-miterlimit="10"/></g><path fill="#ffffff" d="M 116.460938 184.625 L 116.460938 275.308594 L 116.464844 275.308594 C 116.542969 305.464844 139.050781 329.886719 166.800781 329.886719 L 208.402344 329.886719 C 236.152344 329.886719 258.65625 305.464844 258.738281 275.308594 L 258.742188 275.308594 L 258.742188 184.828125 C 193.84375 197.578125 137.5 188.90625 116.460938 184.625 " fill-opacity="1" fill-rule="nonzero"/><g clip-path="url(#id2)"><path stroke-linecap="round" transform="matrix(0.108707, 0, 0, -0.108373, -43.509888, 417.811077)" fill="none" stroke-linejoin="round" d="M 1471.578263 2151.689555 L 1471.578263 1314.920292 L 1471.614197 1314.920292 C 1472.332872 1036.658017 1679.383173 811.308828 1934.656575 811.308828 L 2317.351075 811.308828 C 2572.624477 811.308828 2779.638845 1036.658017 2780.393454 1314.920292 L 2780.429388 1314.920292 L 2780.429388 2149.81525 C 2183.425967 2032.166537 1665.117472 2112.184963 1471.578263 2151.689555 Z M 1471.578263 2151.689555 " stroke="#0d242f" stroke-width="70" stroke-opacity="1" stroke-miterlimit="10"/></g><path stroke-linecap="round" transform="matrix(0.108707, 0, 0, -0.108373, -43.509888, 417.811077)" fill="none" stroke-linejoin="round" d="M 1997.720317 3301.828277 C 1786.78917 3301.828277 1615.708558 3100.268349 1615.133618 2851.382208 L 1615.06175 2851.382208 L 1615.06175 1400.597679 L 1615.133618 1400.597679 " stroke="#0d242f" stroke-width="70" stroke-opacity="1" stroke-miterlimit="10"/></svg>