<svg xmlns="http://www.w3.org/2000/svg" xmlns:xlink="http://www.w3.org/1999/xlink" width="500" zoomAndPan="magnify" viewBox="0 0 375 374.999991" height="500" preserveAspectRatio="xMidYMid meet" version="1.0"><defs><clipPath id="id1"><path d="M 37 103.425781 L 350.234375 103.425781 L 350.234375 262 L 37 262 Z M 37 103.425781 " clip-rule="nonzero"/></clipPath><clipPath id="id2"><path d="M 28.636719 113 L 340.796875 113 L 340.796875 271.632812 L 28.636719 271.632812 Z M 28.636719 113 " clip-rule="nonzero"/></clipPath></defs><g clip-path="url(#id1)"><path fill="#181210" d="M 199.769531 168.472656 C 205.125 161.792969 210.359375 155.011719 215.582031 148.203125 C 216.460938 147.058594 218.054688 146.765625 219.183594 147.539062 C 236.121094 121.980469 266.871094 99.015625 297.835938 106.390625 C 342.742188 117.085938 358.757812 165.273438 345.980469 206.570312 C 337.875 232.765625 318.996094 252.773438 291.324219 259.726562 C 289.300781 260.238281 287.496094 259.75 286.769531 258.921875 C 272.175781 262.105469 258.941406 260.1875 243.78125 251.761719 C 228.304688 243.164062 218.035156 231.308594 206.683594 218.277344 L 189.910156 197.214844 C 177.847656 212.492188 165.660156 228.355469 151.210938 241.007812 C 137.421875 253.085938 120.398438 261.695312 101.707031 261.789062 C 99.511719 261.796875 98.019531 260.730469 97.835938 259.667969 C 64.4375 260.238281 37.472656 224.464844 37.210938 193.445312 C 36.980469 166.027344 44.789062 137.542969 67.984375 119.539062 C 82.390625 108.355469 96.78125 104.003906 114.742188 103.425781 C 116.394531 103.375 117.203125 104.632812 117.167969 105.921875 C 132.972656 106.074219 153.210938 117.015625 165.558594 129.519531 C 177.617188 141.734375 188.8125 154.558594 199.769531 168.472656 Z M 164.261719 165.011719 L 182.964844 188.492188 C 180.3125 191.472656 177.617188 194.417969 174.867188 197.320312 C 146.351562 227.367188 103.214844 252.074219 68.351562 219.347656 C 58.285156 209.890625 53.871094 199.167969 51.070312 186.183594 C 51.835938 186.003906 52.519531 185.226562 52.628906 183.75 C 53.296875 174.730469 56.648438 165.199219 62.507812 156.8125 C 74.949219 139.015625 100.476562 127.535156 119.238281 130.789062 C 137.84375 134.015625 153.121094 147.207031 164.800781 161.386719 C 163.667969 162.292969 163.394531 163.925781 164.261719 165.011719 Z M 273.550781 129.230469 C 262.085938 131.4375 251.328125 135.101562 241.46875 142.273438 C 228.183594 151.941406 216.933594 164.265625 206.359375 176.921875 C 213.277344 185.851562 220.09375 194.78125 227.007812 203.292969 C 241.070312 220.605469 254.445312 233.59375 277.664062 234.355469 C 279.265625 234.410156 280.042969 235.476562 280.132812 236.628906 C 294.476562 233.769531 308.460938 229 320.316406 216.9375 C 339.007812 197.917969 339.855469 166.097656 322.039062 148.1875 C 308.855469 134.9375 294.542969 131.730469 276.339844 131.292969 C 274.421875 131.25 273.566406 130.296875 273.550781 129.230469 " fill-opacity="1" fill-rule="evenodd"/></g><path fill="#004e75" d="M 219.6875 151.210938 C 215.414062 156.476562 211.199219 161.78125 206.957031 167.054688 L 208.320312 166.554688 L 206.910156 167.109375 C 205.523438 168.832031 204.136719 170.550781 202.742188 172.265625 L 203 172.597656 C 204.253906 172.128906 205.507812 171.660156 206.765625 171.1875 C 216.828125 159.613281 227.882812 148.699219 240.488281 140.207031 C 250.988281 133.132812 261.875 129.601562 273.699219 128.414062 C 274.140625 127.230469 275.535156 126.148438 277.601562 126.21875 C 292.710938 126.714844 305.332031 129.433594 316.625 137.53125 C 317.242188 137.515625 317.855469 137.503906 318.472656 137.480469 C 323.550781 137.308594 328.660156 136.855469 333.777344 136.394531 C 328.140625 136.964844 322.519531 137.515625 316.921875 137.742188 C 318.980469 139.242188 320.996094 140.917969 322.972656 142.792969 C 327.824219 142.464844 332.675781 141.9375 337.558594 141.402344 C 329.5 126.074219 315.859375 114.074219 297 109.253906 C 265.828125 101.285156 239.347656 125.40625 219.425781 147.730469 C 220.402344 148.59375 220.5625 150.128906 219.6875 151.210938 Z M 323.214844 143.027344 C 323.910156 143.691406 324.59375 144.375 325.277344 145.089844 C 326.019531 145.859375 326.730469 146.660156 327.40625 147.480469 C 331.523438 147.082031 335.648438 146.566406 339.777344 146.035156 C 339.09375 144.464844 338.355469 142.921875 337.5625 141.414062 C 332.761719 142.011719 327.984375 142.609375 323.214844 143.027344 Z M 327.640625 147.757812 C 328.699219 149.058594 329.683594 150.40625 330.589844 151.800781 C 334.21875 151.371094 337.855469 150.859375 341.492188 150.328125 C 340.96875 148.894531 340.402344 147.476562 339.800781 146.082031 C 335.738281 146.6875 331.691406 147.273438 327.640625 147.757812 Z M 330.804688 152.136719 C 331.5625 153.324219 332.269531 154.546875 332.917969 155.796875 C 336.214844 155.347656 339.511719 154.84375 342.808594 154.3125 C 342.414062 153.003906 341.984375 151.707031 341.523438 150.429688 C 337.949219 151.035156 334.375 151.621094 330.804688 152.136719 Z M 333.132812 156.21875 C 333.6875 157.316406 334.203125 158.429688 334.671875 159.566406 C 335.007812 159.515625 335.339844 159.464844 335.675781 159.414062 C 338.394531 158.992188 341.113281 158.535156 343.832031 158.0625 C 343.539062 156.859375 343.210938 155.667969 342.859375 154.488281 C 339.617188 155.097656 336.378906 155.6875 333.132812 156.21875 Z M 334.886719 160.089844 C 335.289062 161.082031 335.652344 162.085938 335.988281 163.101562 C 336.828125 162.964844 337.667969 162.824219 338.507812 162.683594 C 340.542969 162.335938 342.578125 161.96875 344.613281 161.59375 C 344.394531 160.5 344.160156 159.410156 343.898438 158.328125 C 340.894531 158.941406 337.894531 159.539062 334.886719 160.089844 Z M 336.199219 163.75 C 336.484375 164.648438 336.742188 165.554688 336.976562 166.46875 C 338.378906 166.222656 339.777344 165.972656 341.179688 165.710938 C 342.523438 165.457031 343.863281 165.199219 345.203125 164.9375 C 345.050781 163.941406 344.875 162.949219 344.6875 161.960938 C 342.007812 162.550781 339.332031 163.117188 336.648438 163.660156 Z M 337.175781 167.265625 C 337.367188 168.0625 337.539062 168.867188 337.695312 169.671875 C 339.707031 169.300781 341.722656 168.910156 343.734375 168.503906 C 344.367188 168.375 344.996094 168.246094 345.628906 168.117188 C 345.523438 167.222656 345.410156 166.332031 345.277344 165.445312 C 343.308594 165.902344 341.335938 166.351562 339.363281 166.789062 C 338.632812 166.949219 337.902344 167.109375 337.175781 167.265625 Z M 337.867188 170.625 C 337.953125 171.121094 338.03125 171.617188 338.105469 172.113281 L 341.265625 170.917969 L 338.117188 172.210938 C 338.144531 172.390625 338.167969 172.570312 338.191406 172.75 C 340.765625 172.242188 343.339844 171.714844 345.914062 171.167969 C 345.855469 170.363281 345.78125 169.5625 345.699219 168.765625 C 344.445312 169.074219 343.195312 169.375 341.945312 169.671875 C 340.585938 170 339.226562 170.316406 337.867188 170.625 Z M 338.328125 173.867188 C 338.394531 174.476562 338.453125 175.085938 338.5 175.695312 L 338.878906 175.617188 C 340.921875 174.816406 342.96875 174.003906 345.015625 173.195312 C 343.300781 173.933594 341.589844 174.671875 339.875 175.40625 C 341.945312 174.972656 344.015625 174.527344 346.082031 174.070312 C 346.054688 173.363281 346.023438 172.660156 345.976562 171.957031 C 345.453125 172.09375 344.933594 172.226562 344.417969 172.359375 C 342.390625 172.875 340.359375 173.378906 338.328125 173.867188 Z M 338.585938 177.027344 C 338.613281 177.539062 338.636719 178.050781 338.648438 178.566406 C 340.003906 178.269531 341.359375 177.96875 342.714844 177.664062 C 343.859375 177.195312 345.003906 176.730469 346.148438 176.261719 C 346.144531 175.859375 346.132812 175.457031 346.121094 175.058594 C 343.613281 175.730469 341.097656 176.386719 338.585938 177.027344 Z M 338.664062 180.109375 C 338.664062 180.515625 338.660156 180.921875 338.648438 181.328125 C 341.144531 180.761719 343.636719 180.179688 346.128906 179.585938 C 346.144531 179.078125 346.152344 178.566406 346.15625 178.058594 C 343.660156 178.753906 341.160156 179.441406 338.664062 180.109375 Z M 346.15625 176.878906 C 346.15625 176.707031 346.152344 176.53125 346.152344 176.359375 L 343.769531 177.425781 C 344.566406 177.242188 345.363281 177.0625 346.15625 176.878906 Z M 338.566406 183.355469 C 338.550781 183.578125 338.535156 183.796875 338.519531 184.019531 C 341.019531 183.421875 343.523438 182.8125 346.023438 182.195312 C 346.046875 181.785156 346.070312 181.375 346.085938 180.96875 C 344.035156 181.566406 341.980469 182.152344 339.925781 182.730469 C 339.472656 182.941406 339.019531 183.148438 338.566406 183.355469 Z M 338.332031 186.074219 L 338.324219 186.136719 L 338.832031 185.925781 Z M 337.9375 189 L 337.898438 189.226562 L 339.082031 188.917969 L 339.699219 188.65625 C 340.238281 188.425781 340.78125 188.1875 341.320312 187.957031 C 340.191406 188.304688 339.0625 188.652344 337.9375 189 Z M 345.847656 184.753906 C 345.875 184.4375 345.898438 184.121094 345.921875 183.808594 C 345.015625 184.078125 344.109375 184.351562 343.207031 184.625 C 341.992188 185.199219 340.78125 185.769531 339.566406 186.339844 C 341.660156 185.816406 343.753906 185.285156 345.847656 184.753906 Z M 342.578125 190.371094 C 342.984375 190.191406 343.390625 190.011719 343.796875 189.832031 C 342.503906 190.25 341.214844 190.667969 339.921875 191.085938 C 340.808594 190.847656 341.695312 190.609375 342.578125 190.371094 Z M 345.597656 187.222656 C 345.617188 187.050781 345.636719 186.882812 345.652344 186.714844 C 344.925781 187.070312 344.195312 187.425781 343.46875 187.78125 C 344.175781 187.59375 344.886719 187.40625 345.597656 187.222656 Z M 335.464844 198.65625 C 335.421875 198.785156 335.375 198.914062 335.328125 199.039062 L 335.765625 199.023438 L 335.9375 198.945312 Z M 334.296875 201.675781 C 334.167969 201.984375 334.03125 202.289062 333.898438 202.59375 C 334.726562 202.214844 335.554688 201.832031 336.382812 201.453125 L 335.613281 201 C 335.175781 201.226562 334.734375 201.449219 334.296875 201.675781 Z M 336.625 200.480469 L 336.148438 200.726562 L 336.988281 200.695312 Z M 332.425781 205.652344 C 332.367188 205.761719 332.308594 205.871094 332.253906 205.976562 C 334.453125 204.957031 336.652344 203.925781 338.851562 202.882812 C 338.664062 202.777344 338.480469 202.671875 338.292969 202.5625 C 336.339844 203.597656 334.382812 204.628906 332.425781 205.652344 Z M 328.28125 212.34375 C 326.550781 214.71875 324.605469 216.972656 322.445312 219.0625 C 321.40625 220.066406 320.347656 221.015625 319.269531 221.917969 L 327.316406 231.636719 C 330.375 227.929688 333.117188 223.824219 335.542969 219.269531 C 334.230469 218.808594 332.917969 218.339844 331.605469 217.859375 C 332.195312 217.730469 332.773438 217.601562 333.347656 217.472656 C 332.359375 217.113281 331.367188 216.746094 330.378906 216.371094 C 330.957031 216.25 331.542969 216.121094 332.121094 215.992188 C 331.101562 215.601562 330.097656 215.222656 329.097656 214.8125 C 329.675781 214.707031 330.253906 214.574219 330.832031 214.453125 C 329.808594 214.050781 328.777344 213.625 327.765625 213.1875 C 328.335938 213.078125 328.910156 212.972656 329.488281 212.859375 C 329.085938 212.6875 328.683594 212.515625 328.28125 212.34375 Z M 341.011719 206.765625 L 341.039062 206.683594 L 340 207.265625 Z M 340.855469 204.019531 C 338.730469 205.179688 336.601562 206.335938 334.476562 207.488281 C 336.730469 206.410156 338.984375 205.324219 341.238281 204.230469 Z M 203.179688 172.828125 C 203.527344 173.269531 203.871094 173.714844 204.214844 174.15625 C 204.980469 173.257812 205.746094 172.359375 206.523438 171.464844 C 205.410156 171.921875 204.296875 172.375 203.179688 172.828125 Z M 222.152344 204.367188 L 222.101562 204.300781 L 220.769531 205.082031 Z M 220.929688 202.789062 L 220.753906 202.566406 C 219.195312 203.460938 217.632812 204.359375 216.070312 205.257812 C 217.691406 204.4375 219.308594 203.613281 220.929688 202.789062 Z M 219.667969 201.15625 L 219.371094 200.769531 C 216.589844 202.332031 213.804688 203.890625 211.023438 205.441406 C 213.90625 204.019531 216.789062 202.589844 219.667969 201.15625 Z M 218.351562 199.445312 L 217.925781 198.890625 C 213.789062 201.160156 209.644531 203.421875 205.5 205.664062 C 209.789062 203.617188 214.074219 201.539062 218.351562 199.445312 Z M 216.996094 197.675781 L 216.4375 196.949219 C 211.550781 199.570312 206.652344 202.160156 201.753906 204.71875 C 201.929688 204.6875 202.125 204.644531 202.320312 204.601562 C 207.21875 202.328125 212.109375 200.015625 216.996094 197.675781 Z M 215.582031 195.828125 L 214.878906 194.910156 C 209.886719 197.519531 204.875 200.097656 199.875 202.625 L 200.070312 202.878906 C 200.195312 202.855469 200.324219 202.835938 200.453125 202.8125 C 205.492188 200.523438 210.542969 198.191406 215.582031 195.828125 Z M 214.097656 193.882812 L 213.265625 192.792969 C 208.222656 195.355469 203.171875 197.871094 198.113281 200.328125 L 198.527344 200.871094 C 203.726562 198.59375 208.917969 196.261719 214.097656 193.882812 Z M 212.558594 191.863281 L 211.574219 190.570312 C 206.492188 193.089844 201.382812 195.546875 196.269531 197.929688 L 196.863281 198.699219 C 202.105469 196.484375 207.34375 194.203125 212.558594 191.863281 Z M 210.933594 189.726562 L 209.796875 188.230469 L 209.488281 188.378906 C 204.453125 190.796875 199.390625 193.140625 194.328125 195.402344 L 195.117188 196.429688 C 200.390625 194.273438 205.675781 192.03125 210.933594 189.726562 Z M 209.222656 187.476562 L 207.921875 185.765625 C 207.445312 185.988281 206.96875 186.210938 206.492188 186.429688 C 201.78125 188.613281 197.03125 190.714844 192.28125 192.738281 L 193.265625 194.015625 C 198.601562 191.917969 203.929688 189.738281 209.222656 187.476562 Z M 207.429688 185.117188 L 205.957031 183.179688 C 205.164062 183.535156 204.367188 183.890625 203.570312 184.246094 C 199.109375 186.230469 194.621094 188.121094 190.132812 189.933594 L 191.320312 191.484375 C 196.699219 189.457031 202.078125 187.339844 207.429688 185.117188 Z M 205.519531 182.601562 C 204.96875 181.882812 204.417969 181.160156 203.867188 180.4375 C 202.75 180.921875 201.628906 181.40625 200.507812 181.878906 C 196.304688 183.664062 192.082031 185.355469 187.847656 186.960938 L 189.257812 188.796875 C 194.558594 186.890625 199.851562 184.890625 205.121094 182.765625 Z M 203.492188 179.945312 C 202.871094 179.132812 202.253906 178.320312 201.632812 177.511719 C 200.179688 178.117188 198.722656 178.710938 197.265625 179.300781 C 193.328125 180.886719 189.371094 182.378906 185.410156 183.785156 L 187.054688 185.929688 C 192.078125 184.21875 197.105469 182.417969 202.09375 180.488281 C 202.558594 180.308594 203.027344 180.125 203.492188 179.945312 Z M 201.320312 177.105469 C 200.632812 176.203125 199.941406 175.304688 199.25 174.40625 C 197.457031 175.121094 195.660156 175.820312 193.855469 176.503906 C 190.195312 177.898438 186.5 179.1875 182.808594 180.402344 L 184.714844 182.882812 C 189.453125 181.355469 194.199219 179.738281 198.914062 178 C 199.71875 177.703125 200.519531 177.40625 201.320312 177.105469 Z M 198.988281 174.070312 C 198.214844 173.066406 197.445312 172.070312 196.667969 171.070312 C 194.519531 171.878906 192.363281 172.671875 190.203125 173.4375 C 186.820312 174.632812 183.417969 175.734375 180.015625 176.761719 L 182.199219 179.605469 C 186.652344 178.273438 191.109375 176.855469 195.53125 175.304688 C 196.683594 174.898438 197.835938 174.488281 198.988281 174.070312 Z M 196.457031 170.800781 C 195.601562 169.691406 194.738281 168.589844 193.875 167.488281 C 191.359375 168.382812 188.84375 169.25 186.320312 170.070312 C 183.230469 171.078125 180.121094 171.996094 177.003906 172.839844 L 179.484375 176.074219 C 183.644531 174.925781 187.800781 173.6875 191.925781 172.328125 C 193.441406 171.832031 194.949219 171.320312 196.457031 170.800781 Z M 193.714844 167.285156 C 192.75 166.050781 191.777344 164.824219 190.804688 163.601562 C 187.929688 164.558594 185.054688 165.480469 182.160156 166.332031 C 179.359375 167.160156 176.546875 167.902344 173.726562 168.574219 L 176.558594 172.261719 C 180.40625 171.300781 184.257812 170.25 188.097656 169.074219 C 189.972656 168.496094 191.84375 167.898438 193.714844 167.285156 Z M 190.679688 163.445312 C 189.597656 162.082031 188.507812 160.722656 187.414062 159.367188 C 184.164062 160.371094 180.914062 161.332031 177.652344 162.1875 C 175.15625 162.839844 172.660156 163.414062 170.15625 163.925781 L 173.363281 168.101562 C 176.902344 167.3125 180.4375 166.433594 183.957031 165.441406 C 186.203125 164.808594 188.445312 164.140625 190.679688 163.445312 Z M 187.328125 159.265625 C 186.09375 157.742188 184.851562 156.222656 183.601562 154.710938 C 179.976562 155.738281 176.351562 156.707031 172.707031 157.527344 C 169.804688 158.183594 166.894531 158.722656 163.980469 159.164062 C 164.417969 159.804688 164.84375 160.445312 165.253906 161.089844 C 166.363281 160.507812 167.726562 160.761719 168.484375 161.746094 L 169.867188 163.546875 C 173.082031 162.933594 176.289062 162.238281 179.476562 161.421875 C 182.101562 160.757812 184.714844 160.027344 187.328125 159.265625 Z M 183.554688 154.65625 C 176.824219 146.53125 169.84375 138.625 162.421875 131.117188 C 148.402344 116.933594 133.664062 109.785156 116.996094 106.839844 C 116.65625 107.792969 115.816406 108.582031 114.480469 108.628906 C 99.050781 109.125 83.398438 112.503906 69.257812 124.140625 C 48.753906 141.011719 40.40625 166.988281 41.042969 192.050781 C 41.0625 192.871094 41.105469 193.691406 41.15625 194.507812 C 43.105469 194.164062 45.050781 193.777344 47 193.347656 C 48.527344 193.007812 50.050781 192.644531 51.578125 192.261719 C 51.277344 190.304688 51.046875 188.292969 50.875 186.21875 C 49.824219 186.332031 48.710938 185.375 48.78125 183.613281 C 49.265625 171.417969 54.558594 159.863281 62.328125 150.417969 C 75.722656 134.132812 97.289062 124.097656 120.085938 127.800781 C 135.925781 130.371094 153.558594 144.113281 163.765625 158.855469 C 167.382812 158.328125 170.996094 157.691406 174.605469 156.890625 C 177.59375 156.226562 180.574219 155.460938 183.554688 154.65625 Z M 41.175781 194.804688 C 41.292969 196.582031 41.480469 198.351562 41.738281 200.101562 C 45.128906 199.464844 48.511719 198.738281 51.871094 197.882812 C 52.125 197.816406 52.382812 197.753906 52.640625 197.6875 C 52.21875 195.960938 51.875 194.195312 51.59375 192.378906 C 49.433594 192.957031 47.269531 193.496094 45.097656 193.988281 C 43.792969 194.285156 42.484375 194.554688 41.175781 194.804688 Z M 41.808594 200.535156 C 42.046875 202.105469 42.34375 203.667969 42.691406 205.21875 C 46.484375 204.429688 50.28125 203.542969 54.0625 202.527344 C 53.539062 201.023438 53.085938 199.492188 52.699219 197.925781 C 51.816406 198.171875 50.929688 198.414062 50.042969 198.644531 C 47.304688 199.363281 44.558594 199.984375 41.808594 200.535156 Z M 42.820312 205.789062 C 43.136719 207.152344 43.496094 208.503906 43.894531 209.839844 C 44.066406 209.832031 44.238281 209.824219 44.410156 209.8125 C 48.21875 208.925781 52.035156 207.964844 55.84375 206.894531 C 55.230469 205.582031 54.679688 204.25 54.195312 202.898438 C 50.417969 204.003906 46.621094 204.953125 42.820312 205.789062 Z M 44.136719 210.65625 C 44.460938 211.710938 44.8125 212.757812 45.183594 213.792969 C 46.078125 213.738281 46.96875 213.679688 47.855469 213.617188 C 51.207031 212.734375 54.570312 211.800781 57.921875 210.796875 C 57.246094 209.664062 56.632812 208.523438 56.070312 207.367188 C 52.109375 208.589844 48.117188 209.675781 44.136719 210.65625 Z M 45.691406 215.15625 C 45.984375 215.929688 46.292969 216.691406 46.609375 217.449219 C 48.09375 217.351562 49.582031 217.238281 51.066406 217.101562 C 54.128906 216.214844 57.195312 215.292969 60.253906 214.320312 C 59.542969 213.34375 58.882812 212.363281 58.269531 211.371094 C 54.089844 212.75 49.886719 214.003906 45.691406 215.15625 Z M 47.171875 218.746094 C 53.09375 232.121094 62.847656 243.546875 74.425781 250.871094 C 74.800781 250.792969 75.171875 250.710938 75.542969 250.628906 C 74.519531 250.238281 73.515625 249.859375 72.515625 249.449219 C 73.09375 249.339844 73.671875 249.210938 74.25 249.089844 C 73.230469 248.6875 72.199219 248.261719 71.183594 247.824219 C 71.753906 247.714844 72.332031 247.605469 72.910156 247.492188 C 71.867188 247.054688 70.824219 246.59375 69.792969 246.144531 C 70.359375 246.035156 70.925781 245.925781 71.515625 245.808594 C 70.453125 245.351562 69.378906 244.875 68.324219 244.386719 C 68.902344 244.289062 69.472656 244.179688 70.027344 244.070312 C 68.953125 243.574219 67.871094 243.074219 66.789062 242.570312 C 67.355469 242.46875 67.914062 242.367188 68.480469 242.257812 C 67.386719 241.742188 66.273438 241.195312 65.175781 240.636719 C 65.722656 240.550781 66.300781 240.464844 66.847656 240.371094 C 65.734375 239.789062 64.609375 239.203125 63.496094 238.617188 C 64.03125 238.53125 64.570312 238.457031 65.125 238.363281 C 63.980469 237.746094 62.84375 237.136719 61.707031 236.507812 C 62.234375 236.429688 62.761719 236.351562 63.300781 236.265625 C 62.140625 235.613281 60.984375 234.964844 59.832031 234.28125 C 60.335938 234.226562 60.84375 234.144531 61.359375 234.066406 C 60.171875 233.375 59.003906 232.644531 57.839844 231.902344 C 60.039062 231.636719 62.234375 231.304688 64.414062 230.960938 C 67.425781 229.785156 70.433594 228.582031 73.4375 227.355469 C 72.890625 226.949219 72.34375 226.53125 71.800781 226.101562 C 67.554688 227.984375 63.292969 229.804688 59.046875 231.558594 C 57.953125 230.84375 56.847656 230.125 55.742188 229.402344 C 57.847656 229.140625 59.941406 228.878906 62.050781 228.566406 C 64.945312 227.484375 67.847656 226.378906 70.742188 225.242188 C 70.148438 224.753906 69.558594 224.25 68.972656 223.734375 C 64.800781 225.492188 60.621094 227.179688 56.445312 228.804688 C 55.453125 228.113281 54.484375 227.445312 53.503906 226.734375 C 55.515625 226.519531 57.527344 226.265625 59.542969 226.007812 C 62.378906 225 65.210938 223.96875 68.042969 222.90625 C 67.484375 222.398438 66.929688 221.871094 66.378906 221.335938 C 66.304688 221.261719 66.230469 221.1875 66.15625 221.117188 C 62.011719 222.773438 57.847656 224.34375 53.6875 225.851562 C 52.832031 225.1875 51.976562 224.519531 51.117188 223.867188 C 53.046875 223.6875 54.96875 223.496094 56.886719 223.253906 C 59.714844 222.308594 62.542969 221.335938 65.367188 220.328125 C 64.675781 219.621094 64.015625 218.914062 63.382812 218.203125 C 59.191406 219.78125 54.988281 221.261719 50.789062 222.660156 C 50.042969 222.046875 49.3125 221.445312 48.558594 220.820312 C 50.394531 220.667969 52.230469 220.488281 54.070312 220.308594 C 56.964844 219.398438 59.859375 218.457031 62.753906 217.476562 C 62.042969 216.648438 61.371094 215.8125 60.742188 214.976562 C 56.398438 216.507812 52.035156 217.914062 47.699219 219.238281 Z M 75.964844 251.8125 C 76.160156 251.929688 76.351562 252.042969 76.546875 252.15625 L 76.769531 252.109375 C 76.503906 252.011719 76.234375 251.910156 75.964844 251.8125 Z M 81.921875 254.914062 C 85.03125 256.3125 88.230469 257.417969 91.488281 258.195312 C 93.640625 252.65625 95.375 248.230469 95.808594 247.125 C 91.453125 249.8125 87.09375 252.507812 82.734375 255.183594 C 82.464844 255.09375 82.191406 255.003906 81.921875 254.914062 Z M 168.238281 217.703125 C 174.5625 210.683594 180.613281 203.410156 186.5 196.109375 C 186.148438 195.890625 185.796875 195.667969 185.445312 195.445312 C 186.035156 195.371094 186.628906 195.296875 187.21875 195.214844 L 187.644531 194.6875 C 187.3125 194.828125 186.980469 194.964844 186.652344 195.101562 C 185.910156 194.617188 185.164062 194.132812 184.414062 193.640625 C 182.351562 195.882812 180.25 198.09375 178.105469 200.273438 C 174.070312 204.371094 169.761719 208.367188 165.242188 212.136719 C 165.53125 212.667969 166.636719 214.714844 168.238281 217.703125 Z M 107.082031 238.167969 C 106.976562 238.171875 106.871094 238.171875 106.765625 238.171875 C 105.03125 239.214844 103.292969 240.265625 101.554688 241.316406 C 102.957031 240.578125 104.359375 239.835938 105.761719 239.097656 Z M 103.738281 238.148438 C 103.507812 238.144531 103.277344 238.125 103.042969 238.117188 C 101.195312 239.214844 99.347656 240.316406 97.496094 241.417969 C 99.578125 240.328125 101.660156 239.238281 103.738281 238.148438 Z M 100.191406 237.90625 C 99.960938 237.886719 99.730469 237.855469 99.503906 237.828125 C 97.386719 239.0625 95.273438 240.304688 93.160156 241.539062 C 95.503906 240.328125 97.847656 239.117188 100.191406 237.90625 Z M 96.847656 237.457031 C 96.597656 237.417969 96.347656 237.375 96.097656 237.328125 C 93.558594 238.789062 91.011719 240.253906 88.464844 241.714844 C 91.257812 240.300781 94.050781 238.878906 96.847656 237.457031 Z M 93.652344 236.820312 C 93.375 236.757812 93.097656 236.699219 92.824219 236.632812 C 89.691406 238.390625 86.554688 240.152344 83.417969 241.902344 C 86.828125 240.21875 90.242188 238.519531 93.652344 236.820312 Z M 90.542969 236.003906 C 90.238281 235.914062 89.9375 235.820312 89.632812 235.722656 C 85.726562 237.867188 81.808594 240.003906 77.894531 242.125 C 82.117188 240.109375 86.335938 238.0625 90.542969 236.003906 Z M 87.546875 235.015625 C 87.210938 234.894531 86.875 234.761719 86.542969 234.632812 C 82.414062 236.835938 78.28125 239.019531 74.148438 241.175781 C 74.324219 241.144531 74.519531 241.101562 74.714844 241.058594 C 78.996094 239.074219 83.273438 237.054688 87.546875 235.015625 Z M 84.636719 233.847656 C 84.25 233.683594 83.867188 233.515625 83.484375 233.339844 C 79.449219 235.429688 75.40625 237.5 71.371094 239.535156 C 71.855469 239.449219 72.339844 239.355469 72.847656 239.269531 C 76.773438 237.488281 80.707031 235.675781 84.636719 233.847656 Z M 81.753906 232.5 C 81.335938 232.292969 80.921875 232.074219 80.507812 231.851562 C 76.476562 233.871094 72.4375 235.859375 68.398438 237.808594 C 69.234375 237.660156 70.050781 237.5 70.875 237.351562 C 74.503906 235.761719 78.132812 234.140625 81.753906 232.5 Z M 78.957031 230.980469 C 78.496094 230.710938 78.039062 230.4375 77.578125 230.152344 C 73.484375 232.132812 69.378906 234.070312 65.269531 235.957031 C 66.445312 235.769531 67.632812 235.5625 68.832031 235.339844 C 72.210938 233.914062 75.589844 232.460938 78.957031 230.980469 Z M 76.191406 229.269531 C 75.679688 228.9375 75.175781 228.59375 74.667969 228.242188 C 70.421875 230.210938 66.164062 232.128906 61.914062 233.980469 C 63.503906 233.734375 65.09375 233.484375 66.683594 233.222656 C 69.851562 231.9375 73.023438 230.617188 76.191406 229.269531 Z M 186.21875 192.582031 L 185.828125 192.09375 C 185.644531 192.296875 185.460938 192.5 185.273438 192.703125 C 185.589844 192.664062 185.902344 192.621094 186.21875 192.582031 " fill-opacity="1" fill-rule="evenodd"/><g clip-path="url(#id2)"><path fill="#181210" d="M 179.367188 206.582031 C 174.359375 213.265625 169.472656 220.042969 164.601562 226.851562 C 163.78125 228 162.207031 228.289062 161.042969 227.511719 C 145.417969 253.074219 115.886719 276.035156 84.625 268.664062 C 39.292969 257.96875 20.910156 209.785156 31.597656 168.484375 C 38.375 142.289062 56.210938 122.28125 83.472656 115.328125 C 85.464844 114.820312 87.292969 115.304688 88.058594 116.132812 C 102.457031 112.949219 115.753906 114.867188 131.300781 123.292969 C 147.171875 131.890625 158.007812 143.75 169.984375 156.777344 L 184.957031 174.507812 L 186.457031 176.285156 L 187.769531 177.839844 L 195.136719 186.5625 L 214.964844 210.042969 C 215.878906 211.128906 215.691406 212.761719 214.605469 213.671875 C 226.964844 227.847656 242.867188 241.042969 261.589844 244.265625 C 280.464844 247.519531 305.363281 236.039062 316.882812 218.242188 C 322.3125 209.855469 325.183594 200.324219 325.398438 191.304688 C 325.433594 189.828125 326.078125 189.050781 326.832031 188.871094 C 323.390625 175.890625 318.453125 165.164062 307.933594 155.710938 C 272 123.414062 230.820312 147.054688 203.839844 176.558594 L 195.832031 166.925781 C 204.566406 155.21875 213.671875 143.703125 224.191406 134.046875 C 237.34375 121.972656 253.898438 113.359375 272.542969 113.269531 C 274.734375 113.257812 276.269531 114.324219 276.511719 115.386719 C 309.800781 114.816406 338.488281 150.589844 340.296875 181.609375 C 341.890625 209.027344 335.523438 237.511719 313.285156 255.515625 C 299.46875 266.699219 285.324219 271.054688 267.441406 271.628906 C 265.792969 271.679688 264.925781 270.421875 264.898438 269.128906 C 249.121094 268.980469 228.378906 258.039062 215.4375 245.535156 C 202.800781 233.320312 190.992188 220.496094 179.367188 206.582031 Z M 107.714844 245.824219 C 119.042969 243.617188 129.59375 239.957031 139.070312 232.78125 C 151.839844 223.113281 162.453125 210.792969 172.367188 198.132812 C 165.023438 189.203125 157.777344 180.273438 150.453125 171.761719 C 135.5625 154.449219 121.566406 141.460938 98.367188 140.699219 C 96.769531 140.644531 95.9375 139.578125 95.789062 138.425781 C 81.625 141.285156 67.910156 146.054688 56.683594 158.117188 C 38.984375 177.140625 39.726562 208.960938 58.394531 226.867188 C 72.207031 240.117188 86.648438 243.324219 104.828125 243.757812 C 106.746094 243.804688 107.648438 244.757812 107.714844 245.824219 " fill-opacity="1" fill-rule="evenodd"/></g><path fill="#a3e1f9" d="M 160.359375 223.84375 C 165.679688 216.839844 170.890625 209.769531 176.210938 202.789062 C 175.6875 202.160156 175.167969 201.527344 174.648438 200.898438 C 164.566406 213.566406 153.335938 225.632812 140.152344 234.847656 C 130.03125 241.921875 119.347656 245.453125 107.609375 246.640625 C 107.230469 247.824219 105.890625 248.90625 103.824219 248.835938 C 84.753906 248.207031 69.46875 244.039062 55.320312 229.96875 C 35.601562 210.355469 34.890625 175.914062 54.453125 155.992188 C 66.628906 143.589844 82.625 139.144531 95.765625 138.097656 C 95.746094 136.761719 96.613281 135.429688 98.25 135.5 C 122.820312 136.550781 138.953125 151.023438 153.832031 168.976562 C 174.867188 194.363281 194.722656 220.996094 218.492188 243.9375 C 233.183594 258.121094 248.246094 265.269531 265.019531 268.214844 C 265.308594 267.261719 266.109375 266.46875 267.441406 266.429688 C 282.804688 265.929688 298.253906 262.550781 311.785156 250.914062 C 331.398438 234.042969 338.429688 208.066406 336.542969 183.003906 C 334.011719 149.367188 306.007812 118.789062 276.539062 115.777344 C 276.46875 116.617188 275.503906 117.367188 273.3125 117.464844 C 255.878906 118.253906 239.445312 125.714844 227.332031 137.15625 C 216.777344 147.132812 207.234375 158.316406 198.234375 169.8125 L 200.976562 173.109375 C 229.742188 143.054688 273.175781 119.597656 309.808594 153.722656 C 321.203125 164.335938 325.203125 175.183594 327.023438 188.835938 C 328.066406 188.722656 329.226562 189.683594 329.246094 191.441406 C 329.371094 203.636719 324.667969 215.191406 317.382812 224.636719 C 304.832031 240.921875 283.820312 250.957031 260.890625 247.253906 C 244.15625 244.554688 224.835938 229.53125 214.167969 213.964844 C 213.089844 214.550781 211.71875 214.292969 210.914062 213.308594 C 196.253906 195.34375 181.597656 177.382812 166.941406 159.421875 C 156.226562 147.28125 144.226562 133.628906 129.972656 125.578125 C 116.621094 118.039062 102.933594 115.527344 88.4375 117.105469 C 88.375 117.800781 87.625 118.546875 85.882812 119.113281 C 60.136719 127.488281 43.707031 142.640625 35.871094 170.582031 C 24.898438 209.710938 43.335938 255.183594 85.316406 265.804688 C 116.8125 273.769531 142.027344 249.652344 160.792969 227.324219 C 159.773438 226.460938 159.535156 224.925781 160.359375 223.84375 " fill-opacity="1" fill-rule="evenodd"/><path fill="#52c7f4" d="M 160.359375 223.84375 C 165.679688 216.839844 170.890625 209.769531 176.210938 202.789062 C 175.6875 202.160156 175.167969 201.527344 174.648438 200.898438 C 164.566406 213.566406 153.335938 225.632812 140.152344 234.847656 C 130.03125 241.921875 119.347656 245.453125 107.609375 246.640625 C 107.230469 247.824219 105.890625 248.90625 103.824219 248.835938 C 84.753906 248.207031 69.46875 244.039062 55.320312 229.96875 C 47.894531 222.582031 43.167969 213.097656 41.199219 203.074219 C 41.035156 203.097656 40.871094 203.109375 40.699219 203.109375 C 38.5625 203.109375 36.828125 201.375 36.828125 199.234375 C 36.828125 197.25 38.316406 195.617188 40.238281 195.386719 C 39.546875 182.886719 43.035156 170.179688 50.824219 160.152344 C 49.53125 156.636719 46.230469 154.09375 42.316406 153.898438 C 39.746094 158.882812 37.601562 164.417969 35.871094 170.582031 C 24.898438 209.710938 43.335938 255.183594 85.316406 265.804688 C 116.8125 273.769531 142.027344 249.652344 160.792969 227.324219 C 159.773438 226.460938 159.535156 224.925781 160.359375 223.84375 Z M 112.820312 137.890625 C 119.652344 139.910156 125.773438 143.089844 131.421875 147.105469 C 130.5625 143.667969 128.148438 140.46875 124.558594 138.542969 C 120.671875 136.460938 116.308594 136.351562 112.820312 137.890625 Z M 135.644531 150.328125 C 142.167969 155.644531 148.09375 162.050781 153.832031 168.976562 C 174.867188 194.363281 194.722656 220.996094 218.492188 243.9375 C 233.183594 258.121094 248.246094 265.269531 265.019531 268.214844 C 265.308594 267.261719 266.109375 266.46875 267.441406 266.429688 C 282.804688 265.929688 298.253906 262.550781 311.785156 250.914062 C 320.675781 243.265625 326.980469 233.746094 331.042969 223.289062 C 330.398438 224.050781 329.828125 224.886719 329.34375 225.789062 L 324.253906 224.960938 C 324.328125 224.835938 324.398438 224.707031 324.46875 224.574219 C 326.730469 220.359375 326.878906 215.523438 325.292969 211.097656 C 323.28125 215.933594 320.582031 220.488281 317.382812 224.636719 C 304.832031 240.921875 283.820312 250.957031 260.890625 247.253906 C 244.15625 244.554688 224.835938 229.53125 214.167969 213.964844 C 213.089844 214.550781 211.71875 214.292969 210.914062 213.308594 L 175.371094 169.75 C 175.371094 170.058594 175.351562 170.367188 175.300781 170.679688 C 174.800781 173.757812 171.683594 175.8125 168.34375 175.265625 C 165 174.722656 162.695312 171.789062 163.191406 168.714844 C 163.691406 165.636719 166.8125 163.582031 170.152344 164.128906 C 170.414062 164.167969 170.671875 164.230469 170.921875 164.300781 L 166.941406 159.421875 C 163.84375 155.914062 160.644531 152.28125 157.308594 148.691406 C 154.964844 150.449219 152.898438 152.535156 151.1875 154.917969 C 150.875 152.28125 149.175781 149.730469 146.460938 148.273438 C 142.527344 146.164062 137.859375 147.105469 135.644531 150.328125 Z M 335.964844 203.914062 C 336.660156 198.796875 336.929688 193.59375 336.808594 188.402344 C 335.664062 186.964844 334.191406 185.714844 332.433594 184.769531 C 330.382812 183.671875 328.199219 183.125 326.082031 183.089844 C 326.453125 184.953125 326.761719 186.867188 327.023438 188.835938 C 328.066406 188.722656 329.226562 189.683594 329.246094 191.441406 C 329.296875 196.660156 328.46875 201.765625 326.925781 206.632812 C 330.300781 206.949219 333.578125 205.976562 335.964844 203.914062 Z M 207.941406 157.855469 C 204.625 161.777344 201.394531 165.777344 198.234375 169.8125 L 200.976562 173.109375 C 206.71875 167.105469 213.054688 161.367188 219.800781 156.296875 C 215.6875 155.855469 211.640625 156.503906 208.128906 158.125 C 208.066406 158.035156 208 157.945312 207.941406 157.855469 Z M 224.464844 152.945312 C 225.734375 152.078125 227.011719 151.230469 228.304688 150.417969 C 229.058594 148.449219 228.074219 146.082031 225.949219 144.941406 C 223.664062 143.714844 220.929688 144.378906 219.832031 146.421875 C 218.738281 148.460938 219.707031 151.109375 221.988281 152.332031 C 222.789062 152.761719 223.644531 152.957031 224.464844 152.945312 Z M 125.527344 123.257812 C 120.300781 120.753906 115.011719 118.992188 109.636719 117.921875 C 107.789062 121.605469 109.550781 126.304688 113.636719 128.5 C 117.785156 130.722656 122.761719 129.519531 124.746094 125.8125 C 125.183594 125.003906 125.441406 124.136719 125.527344 123.257812 Z M 136.476562 134.566406 C 138.761719 135.789062 139.726562 138.4375 138.632812 140.476562 C 137.539062 142.519531 134.796875 143.179688 132.515625 141.957031 C 130.230469 140.730469 129.265625 138.082031 130.359375 136.039062 C 131.453125 134.003906 134.191406 133.339844 136.476562 134.566406 Z M 240.050781 133.878906 C 241.777344 134.804688 242.507812 136.804688 241.679688 138.347656 C 240.851562 139.890625 238.78125 140.390625 237.054688 139.464844 C 235.328125 138.535156 234.597656 136.535156 235.425781 134.992188 C 236.25 133.449219 238.324219 132.953125 240.050781 133.878906 " fill-opacity="1" fill-rule="evenodd"/><path fill="#00adef" d="M 160.359375 223.84375 C 162.515625 221.003906 164.65625 218.152344 166.792969 215.300781 C 166.234375 214.949219 165.625 214.65625 164.96875 214.433594 C 164.460938 214.261719 163.949219 214.140625 163.441406 214.0625 C 160.792969 216.941406 158.0625 219.738281 155.238281 222.417969 C 155.253906 222.46875 155.273438 222.519531 155.289062 222.570312 L 155.117188 222.535156 C 150.410156 227 145.4375 231.15625 140.152344 234.847656 C 130.03125 241.921875 119.347656 245.453125 107.609375 246.640625 C 107.230469 247.824219 105.890625 248.90625 103.824219 248.835938 C 98.0625 248.648438 92.644531 248.132812 87.5 247.121094 C 87.792969 247.214844 88.085938 247.296875 88.378906 247.375 C 87.03125 249.058594 85.953125 250.976562 85.230469 253.105469 C 85.15625 253.328125 85.085938 253.550781 85.019531 253.773438 C 80.492188 253.351562 76.097656 254.242188 72.414062 256.207031 C 73.625 252.195312 71.0625 247.777344 66.589844 246.253906 C 62.347656 244.8125 57.878906 246.480469 56.164062 250 C 64.023438 257.328125 73.777344 262.886719 85.316406 265.804688 C 104.449219 270.644531 121.265625 263.640625 135.726562 252.390625 C 134.484375 251.445312 133.691406 250.019531 133.683594 248.421875 C 133.675781 245.558594 136.1875 243.230469 139.296875 243.222656 C 141.195312 243.21875 142.878906 244.078125 143.902344 245.398438 C 147.949219 241.625 151.792969 237.605469 155.417969 233.542969 C 155.386719 233.101562 155.453125 232.667969 155.628906 232.253906 C 156.046875 231.257812 157.003906 230.617188 158.15625 230.421875 C 159.050781 229.386719 159.929688 228.355469 160.792969 227.324219 C 159.773438 226.460938 159.535156 224.925781 160.359375 223.84375 Z M 198.757812 223.257812 C 200.574219 225.300781 202.40625 227.328125 204.261719 229.335938 C 205.171875 228.917969 205.898438 228.183594 206.230469 227.210938 C 206.914062 225.203125 205.640625 222.949219 203.390625 222.183594 C 201.636719 221.585938 199.804688 222.066406 198.757812 223.257812 Z M 205.710938 230.902344 C 209.859375 235.351562 214.109375 239.707031 218.492188 243.9375 C 233.183594 258.121094 248.246094 265.269531 265.019531 268.214844 C 265.308594 267.261719 266.109375 266.46875 267.441406 266.429688 C 274.148438 266.210938 280.867188 265.441406 287.4375 263.683594 C 286.410156 261.417969 284.855469 259.339844 282.867188 257.613281 C 288.941406 259.511719 295.273438 256.746094 297.109375 251.332031 C 298.164062 248.234375 297.527344 244.929688 295.667969 242.253906 C 289.125 245.394531 281.917969 247.378906 274.328125 247.890625 C 274.589844 250.226562 275.6875 252.472656 277.417969 254.273438 C 277.046875 254.117188 276.664062 253.980469 276.277344 253.84375 C 275.023438 253.421875 273.757812 253.125 272.5 252.953125 C 272.742188 251.285156 272.574219 249.597656 272.0625 248 C 268.410156 248.101562 264.675781 247.867188 260.890625 247.253906 C 244.15625 244.554688 224.835938 229.53125 214.167969 213.964844 C 213.625 214.261719 213.003906 214.339844 212.421875 214.222656 C 210.960938 215.003906 209.8125 216.261719 209.269531 217.871094 C 208.046875 221.472656 210.265625 225.496094 214.242188 226.945312 C 212.621094 228.410156 211.28125 230.167969 210.316406 232.179688 C 209.8125 231.929688 209.289062 231.707031 208.742188 231.519531 C 207.734375 231.179688 206.714844 230.976562 205.710938 230.902344 Z M 198.046875 205.339844 C 199.75 205.917969 200.710938 207.621094 200.191406 209.144531 C 199.675781 210.664062 197.875 211.425781 196.171875 210.847656 C 194.46875 210.269531 193.507812 208.566406 194.027344 207.042969 C 194.542969 205.523438 196.347656 204.761719 198.046875 205.339844 Z M 255.046875 255.140625 C 258.019531 256.394531 259.625 259.320312 258.632812 261.675781 C 257.640625 264.027344 254.425781 264.917969 251.453125 263.664062 C 248.480469 262.414062 246.875 259.488281 247.863281 257.132812 C 248.855469 254.78125 252.074219 253.886719 255.046875 255.140625 " fill-opacity="1" fill-rule="evenodd"/><path fill="#cceffc" d="M 159.179688 218.542969 C 153.285156 224.535156 146.984375 230.074219 140.152344 234.847656 C 130.03125 241.921875 119.347656 245.453125 107.609375 246.640625 C 107.5 246.972656 107.320312 247.292969 107.070312 247.585938 C 120.179688 246.761719 132.1875 241.871094 141.863281 235.074219 C 148.417969 230.472656 153.992188 224.722656 159.179688 218.542969 Z M 122.246094 141.589844 C 134.492188 147.644531 144.414062 157.609375 153.832031 168.976562 C 174.867188 194.363281 194.722656 220.996094 218.492188 243.9375 C 227.21875 252.363281 236.078125 258.304688 245.347656 262.359375 C 237.144531 258.371094 229.25 252.828125 221.453125 245.304688 C 197.683594 222.363281 177.828125 195.730469 156.792969 170.34375 C 146.628906 158.078125 135.875 147.4375 122.246094 141.589844 Z M 279.835938 116.234375 C 278.738281 116.042969 277.640625 115.886719 276.539062 115.777344 C 276.46875 116.617188 275.503906 117.367188 273.3125 117.464844 C 255.878906 118.253906 239.445312 125.714844 227.332031 137.15625 C 216.777344 147.132812 207.234375 158.316406 198.234375 169.8125 L 199.515625 171.355469 C 209.070312 159.808594 219.800781 148.4375 230.292969 138.527344 C 242.40625 127.082031 258.839844 119.621094 276.273438 118.832031 C 278.277344 118.742188 279.679688 117.445312 279.835938 116.234375 Z M 294.050781 142.625 C 299.394531 145.285156 304.667969 148.933594 309.808594 153.722656 C 321.203125 164.335938 325.203125 175.183594 327.023438 188.835938 C 327.613281 188.773438 328.242188 189.050781 328.679688 189.625 C 327.386719 176.242188 324.003906 165.554688 312.769531 155.089844 C 306.683594 149.421875 300.410156 145.347656 294.050781 142.625 Z M 329.011719 190.214844 C 329.152344 190.566406 329.238281 190.976562 329.246094 191.441406 C 329.371094 203.636719 324.667969 215.191406 317.382812 224.636719 C 304.832031 240.921875 283.820312 250.957031 260.890625 247.253906 C 257.300781 246.675781 253.589844 245.527344 249.867188 243.925781 C 254.570312 246.242188 259.308594 247.890625 263.855469 248.625 C 286.78125 252.324219 307.796875 242.289062 320.347656 226.007812 C 327.628906 216.554688 332.332031 206.027344 332.207031 193.832031 C 332.191406 192.21875 330.152344 190.410156 329.011719 190.214844 Z M 126.050781 123.511719 C 113.941406 117.589844 101.519531 115.679688 88.4375 117.105469 C 88.375 117.800781 87.625 118.546875 85.882812 119.113281 C 60.136719 127.488281 43.707031 142.640625 35.871094 170.582031 C 25.851562 206.304688 40.355469 247.3125 74.902344 262.261719 C 42.492188 246.300781 29.105469 206.636719 38.835938 171.949219 C 46.671875 144.007812 63.097656 128.855469 88.84375 120.480469 C 90.585938 119.914062 91.335938 119.167969 91.398438 118.472656 C 103.417969 117.164062 114.878906 118.667969 126.050781 123.511719 " fill-opacity="1" fill-rule="evenodd"/><path fill="#a3e1f9" d="M 159.179688 218.542969 C 153.285156 224.535156 146.984375 230.074219 140.152344 234.847656 C 130.03125 241.921875 119.347656 245.453125 107.609375 246.640625 C 107.5 246.972656 107.320312 247.292969 107.070312 247.585938 C 120.179688 246.761719 132.1875 241.871094 141.863281 235.074219 C 148.417969 230.472656 153.992188 224.722656 159.179688 218.542969 Z M 125.527344 123.257812 L 125.527344 123.285156 C 120.191406 121.027344 114.792969 119.523438 109.300781 118.722656 C 109.394531 118.453125 109.503906 118.1875 109.636719 117.925781 C 115.011719 118.992188 120.300781 120.753906 125.527344 123.257812 Z M 42.316406 153.898438 C 43.480469 153.957031 44.582031 154.222656 45.601562 154.65625 C 42.886719 159.792969 40.632812 165.535156 38.835938 171.949219 C 29.105469 206.636719 42.492188 246.300781 74.902344 262.261719 C 40.355469 247.3125 25.851562 206.304688 35.871094 170.582031 C 37.601562 164.417969 39.746094 158.882812 42.316406 153.898438 Z M 131.199219 146.332031 C 131.28125 146.589844 131.355469 146.847656 131.421875 147.105469 C 128.5 145.03125 125.453125 143.175781 122.246094 141.589844 C 125.371094 142.933594 128.347656 144.527344 131.199219 146.332031 Z M 135.644531 150.328125 C 135.785156 150.121094 135.9375 149.921875 136.101562 149.730469 C 143.628906 155.402344 150.328125 162.542969 156.792969 170.34375 C 177.828125 195.730469 197.683594 222.363281 221.453125 245.304688 C 229.25 252.828125 237.144531 258.371094 245.347656 262.359375 C 236.078125 258.304688 227.21875 252.363281 218.492188 243.9375 C 194.722656 220.996094 174.867188 194.363281 153.832031 168.976562 C 148.09375 162.050781 142.167969 155.644531 135.644531 150.328125 Z M 207.941406 157.855469 C 208 157.945312 208.066406 158.035156 208.128906 158.125 C 209.464844 157.507812 210.875 157.035156 212.339844 156.703125 C 207.921875 161.488281 203.609375 166.40625 199.515625 171.355469 L 198.234375 169.8125 C 201.394531 165.777344 204.625 161.777344 207.941406 157.855469 Z M 326.082031 183.089844 C 326.667969 183.101562 327.257812 183.148438 327.84375 183.238281 C 328.195312 185.300781 328.46875 187.429688 328.679688 189.625 C 328.242188 189.050781 327.613281 188.773438 327.023438 188.835938 C 326.761719 186.867188 326.453125 184.953125 326.082031 183.089844 Z M 330.542969 206.472656 C 329.375 206.691406 328.15625 206.75 326.925781 206.632812 C 328.46875 201.765625 329.296875 196.660156 329.246094 191.441406 C 329.238281 190.976562 329.152344 190.566406 329.011719 190.214844 C 330.152344 190.410156 332.191406 192.21875 332.207031 193.832031 C 332.253906 198.257812 331.660156 202.460938 330.542969 206.472656 Z M 325.292969 211.097656 C 325.960938 212.960938 326.320312 214.894531 326.34375 216.824219 C 324.644531 220 322.621094 223.054688 320.347656 226.007812 C 307.796875 242.289062 286.78125 252.324219 263.855469 248.625 C 259.308594 247.890625 254.570312 246.242188 249.867188 243.925781 C 253.589844 245.527344 257.300781 246.675781 260.890625 247.253906 C 283.820312 250.957031 304.832031 240.921875 317.382812 224.636719 C 320.582031 220.488281 323.28125 215.933594 325.292969 211.097656 Z M 219.492188 149.167969 C 219.277344 148.246094 219.371094 147.277344 219.832031 146.421875 C 220.664062 144.871094 222.4375 144.117188 224.246094 144.378906 C 222.65625 145.949219 221.074219 147.546875 219.492188 149.167969 " fill-opacity="1" fill-rule="evenodd"/><path fill="#29baf2" d="M 159.179688 218.542969 C 157.886719 219.859375 156.574219 221.152344 155.242188 222.417969 C 155.257812 222.46875 155.273438 222.519531 155.289062 222.570312 L 155.121094 222.535156 C 150.410156 227 145.4375 231.15625 140.152344 234.847656 C 130.03125 241.921875 119.347656 245.453125 107.609375 246.640625 C 107.5 246.972656 107.320312 247.292969 107.070312 247.585938 C 120.179688 246.761719 132.1875 241.871094 141.863281 235.074219 C 148.417969 230.472656 153.992188 224.722656 159.179688 218.542969 Z M 56.164062 249.996094 C 56.332031 249.65625 56.523438 249.332031 56.742188 249.027344 C 61.898438 254.335938 67.964844 258.84375 74.902344 262.261719 C 67.796875 259.1875 61.539062 255.003906 56.164062 249.996094 Z M 205.710938 230.902344 C 206.367188 230.949219 207.03125 231.054688 207.695312 231.214844 C 212.152344 236.03125 216.726562 240.742188 221.453125 245.304688 C 229.25 252.828125 237.144531 258.371094 245.347656 262.359375 C 236.078125 258.304688 227.21875 252.363281 218.492188 243.9375 C 214.109375 239.707031 209.859375 235.351562 205.710938 230.902344 Z M 272.0625 248 C 272.207031 248.453125 272.324219 248.914062 272.414062 249.382812 C 269.601562 249.335938 266.742188 249.089844 263.855469 248.625 C 259.308594 247.890625 254.570312 246.242188 249.867188 243.925781 C 253.589844 245.527344 257.300781 246.675781 260.890625 247.253906 C 264.675781 247.867188 268.410156 248.101562 272.0625 248 Z M 274.613281 249.375 C 274.480469 248.886719 274.386719 248.390625 274.328125 247.890625 C 281.917969 247.378906 289.125 245.394531 295.667969 242.253906 C 296.148438 242.945312 296.546875 243.675781 296.855469 244.4375 C 290.011719 247.449219 282.5 249.207031 274.613281 249.375 Z M 205.316406 228.628906 C 205.011719 228.917969 204.65625 229.160156 204.261719 229.335938 C 202.40625 227.328125 200.574219 225.300781 198.757812 223.257812 C 199.046875 222.929688 199.394531 222.65625 199.789062 222.441406 C 201.613281 224.519531 203.457031 226.582031 205.316406 228.628906 " fill-opacity="1" fill-rule="evenodd"/><path fill="#ffffff" d="M 328.230469 205.304688 C 328.1875 206.023438 328.148438 206.730469 328.109375 207.421875 C 328.070312 208.109375 328.035156 208.785156 327.996094 209.453125 C 328.636719 209.410156 329.402344 209.355469 330.339844 209.277344 C 331.511719 209.179688 333.023438 209.027344 335.027344 208.816406 C 333.058594 209.132812 331.5625 209.359375 330.402344 209.523438 C 329.472656 209.652344 328.707031 209.75 328.066406 209.828125 C 328.355469 210.5 328.671875 211.230469 329.015625 212.019531 C 329.390625 212.882812 329.8125 213.832031 330.269531 214.878906 C 329.734375 213.828125 329.257812 212.890625 328.828125 212.046875 C 328.445312 211.289062 328.101562 210.59375 327.785156 209.960938 C 327.414062 210.324219 327.078125 210.648438 326.777344 210.941406 C 326.503906 211.203125 326.253906 211.449219 326.023438 211.671875 C 326.230469 211.40625 326.453125 211.117188 326.695312 210.808594 C 326.957031 210.46875 327.246094 210.097656 327.566406 209.6875 C 327.128906 209.351562 326.746094 209.054688 326.410156 208.792969 C 326.113281 208.5625 325.847656 208.351562 325.605469 208.164062 C 325.855469 208.3125 326.136719 208.480469 326.453125 208.664062 C 326.808594 208.871094 327.21875 209.109375 327.6875 209.382812 C 327.769531 208.75 327.855469 208.097656 327.945312 207.429688 C 328.035156 206.746094 328.132812 206.039062 328.230469 205.304688 " fill-opacity="1" fill-rule="evenodd"/><path fill="#ffffff" d="M 58.796875 133.636719 C 58.230469 134.507812 57.679688 135.367188 57.136719 136.210938 C 56.59375 137.046875 56.066406 137.871094 55.542969 138.6875 C 56.375 139.085938 57.378906 139.566406 58.617188 140.136719 C 60.15625 140.847656 62.167969 141.742188 64.839844 142.90625 C 62.136719 141.894531 60.089844 141.113281 58.519531 140.488281 C 57.253906 139.988281 56.222656 139.5625 55.359375 139.207031 C 55.242188 140.257812 55.121094 141.398438 54.988281 142.640625 C 54.847656 143.988281 54.695312 145.488281 54.523438 147.132812 C 54.605469 145.425781 54.671875 143.90625 54.738281 142.539062 C 54.796875 141.3125 54.859375 140.195312 54.914062 139.171875 C 54.1875 139.363281 53.535156 139.53125 52.945312 139.683594 C 52.414062 139.820312 51.925781 139.949219 51.476562 140.0625 C 51.925781 139.875 52.414062 139.671875 52.9375 139.457031 C 53.511719 139.21875 54.140625 138.957031 54.835938 138.667969 C 54.523438 137.933594 54.253906 137.289062 54.019531 136.722656 C 53.808594 136.21875 53.625 135.761719 53.457031 135.351562 C 53.664062 135.71875 53.898438 136.128906 54.164062 136.585938 C 54.460938 137.105469 54.804688 137.695312 55.199219 138.371094 C 55.757812 137.636719 56.332031 136.878906 56.921875 136.105469 C 57.527344 135.304688 58.152344 134.484375 58.796875 133.636719 " fill-opacity="1" fill-rule="evenodd"/><path fill="#ffffff" d="M 244.601562 122.3125 C 244.5625 123.027344 244.519531 123.734375 244.480469 124.429688 C 244.441406 125.113281 244.40625 125.789062 244.371094 126.460938 C 245.007812 126.414062 245.773438 126.363281 246.710938 126.28125 C 247.882812 126.183594 249.394531 126.035156 251.398438 125.824219 C 249.433594 126.136719 247.933594 126.363281 246.777344 126.527344 C 245.84375 126.660156 245.078125 126.753906 244.4375 126.832031 C 244.726562 127.503906 245.042969 128.234375 245.386719 129.027344 C 245.761719 129.886719 246.183594 130.835938 246.640625 131.882812 C 246.109375 130.832031 245.628906 129.894531 245.203125 129.050781 C 244.816406 128.292969 244.472656 127.601562 244.15625 126.964844 C 243.785156 127.332031 243.449219 127.652344 243.148438 127.945312 C 242.875 128.210938 242.625 128.453125 242.394531 128.675781 C 242.601562 128.410156 242.824219 128.125 243.066406 127.8125 C 243.332031 127.472656 243.621094 127.101562 243.9375 126.691406 C 243.5 126.355469 243.121094 126.058594 242.785156 125.800781 C 242.484375 125.566406 242.21875 125.359375 241.976562 125.167969 C 242.230469 125.316406 242.507812 125.484375 242.824219 125.667969 C 243.183594 125.878906 243.589844 126.113281 244.058594 126.386719 C 244.140625 125.753906 244.226562 125.105469 244.316406 124.4375 C 244.40625 123.75 244.503906 123.042969 244.601562 122.3125 " fill-opacity="1" fill-rule="evenodd"/></svg>