<svg xmlns="http://www.w3.org/2000/svg" xmlns:xlink="http://www.w3.org/1999/xlink" width="500" zoomAndPan="magnify" viewBox="0 0 375 374.999991" height="500" preserveAspectRatio="xMidYMid meet" version="1.0"><defs><clipPath id="id1"><path d="M 35.242188 41.054688 L 339.742188 41.054688 L 339.742188 334.304688 L 35.242188 334.304688 Z M 35.242188 41.054688 " clip-rule="nonzero"/></clipPath></defs><path fill="#fffdb3" d="M 253.265625 115.761719 L 221.414062 232.167969 L 245.300781 262.464844 L 310.597656 44.003906 L 58.96875 72.707031 L 39.859375 106.195312 L 261.226562 80.679688 " fill-opacity="1" fill-rule="nonzero"/><path fill="#ffffff" d="M 248.484375 125.328125 L 150.863281 136.492188 L 220.136719 226.109375 Z M 248.484375 125.328125 " fill-opacity="1" fill-rule="nonzero"/><path fill="#ffffff" d="M 57.855469 77.011719 L 57.058594 78.289062 C 57.378906 78.289062 57.695312 78.289062 57.855469 78.449219 Z M 57.855469 77.011719 " fill-opacity="1" fill-rule="nonzero"/><path fill="#ffffff" d="M 284.160156 128.839844 C 283.839844 129.316406 283.683594 129.953125 283.683594 130.59375 Z M 284.160156 128.839844 " fill-opacity="1" fill-rule="nonzero"/><path fill="#f6b4c6" d="M 101.171875 138.882812 C 101.492188 138.085938 102.128906 137.609375 102.925781 137.609375 L 146.5625 132.664062 L 249.917969 120.863281 L 260.113281 84.507812 L 41.453125 109.382812 L 212.175781 329.757812 L 250.875 325.292969 L 101.492188 141.117188 C 100.855469 140.480469 100.855469 139.679688 101.171875 138.882812 Z M 101.171875 138.882812 " fill-opacity="1" fill-rule="nonzero"/><path fill="#b5b6e6" d="M 245.621094 265.972656 C 244.824219 266.132812 244.027344 265.816406 243.550781 265.175781 L 221.253906 234.5625 C 221.253906 234.5625 221.253906 234.402344 221.09375 234.402344 L 220.933594 234.242188 L 145.765625 137.128906 L 107.382812 141.433594 L 254.378906 322.582031 L 335.121094 81 L 313.144531 48.308594 L 247.210938 264.378906 C 247.054688 265.175781 246.414062 265.816406 245.621094 265.972656 Z M 245.621094 265.972656 " fill-opacity="1" fill-rule="nonzero"/><path fill="#0051c2" d="M 244.34375 258.957031 L 245.140625 256.566406 C 244.503906 256.726562 243.867188 257.042969 243.070312 257.203125 Z M 244.34375 258.957031 " fill-opacity="1" fill-rule="nonzero"/><g clip-path="url(#id1)"><path fill="#1e0f00" d="M 57.21875 70.316406 C 56.742188 70.476562 56.421875 70.792969 56.261719 71.273438 L 35.558594 106.511719 L 35.558594 106.671875 C 35.398438 106.832031 35.242188 106.992188 35.242188 107.3125 L 35.242188 108.269531 C 35.242188 108.425781 35.398438 108.746094 35.558594 108.90625 L 35.558594 109.066406 L 209.46875 333.425781 C 209.945312 334.0625 210.742188 334.382812 211.378906 334.222656 L 255.175781 329.28125 C 255.492188 329.28125 255.652344 329.121094 255.8125 329.121094 L 255.972656 329.121094 C 256.128906 328.960938 256.289062 328.960938 256.449219 328.800781 L 256.609375 328.644531 C 256.769531 328.484375 256.925781 328.324219 256.925781 328.003906 L 256.925781 327.84375 L 339.421875 81.320312 C 339.582031 80.679688 339.582031 80.042969 339.105469 79.40625 L 314.257812 42.089844 L 314.257812 41.933594 C 314.101562 41.773438 313.941406 41.613281 313.78125 41.613281 C 313.621094 41.453125 313.464844 41.453125 313.304688 41.292969 L 312.507812 41.292969 L 57.855469 69.996094 C 57.695312 70.15625 57.535156 70.15625 57.21875 70.316406 Z M 250.875 325.292969 L 212.175781 329.757812 L 41.453125 109.382812 L 259.953125 84.507812 L 249.761719 120.863281 L 146.402344 132.664062 L 102.765625 137.609375 C 101.96875 137.769531 101.332031 138.246094 101.015625 138.882812 C 100.695312 139.679688 100.855469 140.480469 101.332031 141.117188 Z M 248.484375 125.328125 L 220.136719 226.109375 L 150.863281 136.492188 Z M 335.121094 81 L 254.21875 322.582031 L 107.382812 141.433594 L 145.765625 137.128906 L 220.933594 234.242188 L 221.09375 234.402344 C 221.09375 234.402344 221.09375 234.5625 221.253906 234.5625 L 243.550781 265.175781 C 244.027344 265.816406 244.824219 266.132812 245.621094 265.972656 C 246.414062 265.816406 247.054688 265.175781 247.371094 264.378906 L 313.144531 48.308594 Z M 81.105469 71.75 L 83.019531 71.589844 L 122.035156 67.125 L 127.132812 66.488281 L 140.191406 65.054688 L 142.898438 64.734375 L 167.265625 62.023438 L 171.566406 61.546875 L 186.214844 59.949219 L 188.765625 59.632812 L 213.925781 56.761719 L 223.640625 55.644531 L 227.625 55.167969 L 230.332031 54.847656 L 244.984375 53.253906 L 247.054688 53.09375 L 270.78125 50.382812 L 275.242188 49.90625 L 284.796875 48.789062 L 291.007812 48.152344 L 309.480469 45.917969 L 305.339844 59.472656 L 304.542969 62.34375 L 299.128906 80.042969 L 298.175781 83.230469 L 296.261719 89.609375 L 295.785156 91.046875 L 293.398438 99.179688 L 292.601562 101.890625 L 285.59375 124.851562 L 284.320312 129.15625 L 283.839844 130.910156 L 282.726562 134.738281 L 281.453125 138.882812 L 280.976562 140.636719 L 272.851562 165.515625 L 272.214844 167.425781 L 268.074219 181.300781 L 264.570312 192.78125 L 258.679688 212.234375 L 257.882812 214.945312 L 252.308594 233.285156 L 251.351562 236.472656 L 245.140625 256.566406 L 244.34375 258.957031 L 243.070312 257.203125 L 235.109375 246.203125 L 233.355469 243.648438 L 228.578125 237.273438 L 224.597656 231.691406 C 224.597656 231.691406 224.597656 231.53125 224.4375 231.53125 L 223.484375 230.253906 L 228.417969 212.875 L 229.375 209.207031 L 231.445312 201.871094 L 232.71875 197.566406 L 235.425781 187.679688 L 237.179688 181.300781 L 243.070312 160.570312 L 243.867188 157.859375 L 248.328125 141.914062 L 248.964844 139.363281 L 253.421875 123.417969 L 253.582031 123.097656 L 254.695312 119.269531 L 260.589844 98.382812 L 261.386719 95.351562 L 264.410156 84.507812 L 264.890625 82.59375 C 265.050781 81.957031 264.890625 81.160156 264.410156 80.519531 C 263.933594 80.042969 263.296875 79.722656 262.5 79.722656 L 261.386719 79.882812 L 249.125 81.320312 L 246.414062 81.636719 L 217.75 84.828125 L 216.15625 84.984375 L 199.753906 86.898438 L 197.207031 87.21875 L 195.292969 87.378906 L 179.6875 89.132812 L 165.511719 90.726562 L 163.921875 90.886719 L 145.765625 92.960938 L 140.191406 93.597656 L 132.707031 94.394531 L 127.769531 95.03125 L 90.34375 99.335938 L 88.273438 99.496094 L 59.128906 103.003906 L 56.421875 103.324219 L 41.929688 104.917969 L 41.609375 104.917969 L 43.839844 101.09375 L 55.785156 80.839844 L 57.21875 78.449219 L 58.015625 77.171875 L 59.605469 74.460938 L 62.472656 74.144531 Z M 81.105469 71.75 " fill-opacity="1" fill-rule="nonzero"/></g></svg>